<svg width="23" height="22" viewBox="0 0 23 22" fill="none" xmlns="http://www.w3.org/2000/svg">
<path d="M21.6667 10.1867C21.9144 10.0021 22.0982 9.74459 22.1923 9.45028C22.2863 9.15596 22.2859 8.8396 22.1911 8.54554C22.0962 8.25149 21.9117 7.99448 21.6635 7.81057C21.4152 7.62665 21.1156 7.52505 20.8067 7.52L14.8067 7.29333C14.7772 7.2913 14.7489 7.28078 14.7252 7.26303C14.7016 7.24529 14.6835 7.22109 14.6733 7.19334L12.6 1.59333C12.4958 1.30843 12.3066 1.06241 12.058 0.888599C11.8094 0.714784 11.5134 0.621567 11.21 0.621567C10.9066 0.621567 10.6106 0.714784 10.362 0.888599C10.1134 1.06241 9.92417 1.30843 9.82 1.59333L7.75333 7.21334C7.74312 7.24109 7.7251 7.26529 7.70144 7.28303C7.67778 7.30078 7.6495 7.3113 7.62 7.31334L1.62 7.54C1.31107 7.54505 1.01147 7.64665 0.763196 7.83057C0.514926 8.01448 0.330441 8.27149 0.235607 8.56554C0.140774 8.8596 0.140348 9.17596 0.234391 9.47028C0.328433 9.76459 0.512226 10.0221 0.760001 10.2067L5.46667 13.9067C5.49022 13.9252 5.50783 13.9502 5.51731 13.9787C5.52679 14.0071 5.52772 14.0377 5.52 14.0667L3.9 19.8067C3.81605 20.099 3.82419 20.41 3.92329 20.6975C4.0224 20.985 4.20767 21.235 4.4539 21.4135C4.70013 21.592 4.99536 21.6903 5.29944 21.695C5.60351 21.6998 5.90166 21.6107 6.15333 21.44L11.1267 18.1067C11.1512 18.0898 11.1802 18.0807 11.21 18.0807C11.2398 18.0807 11.2688 18.0898 11.2933 18.1067L16.2667 21.44C16.5149 21.6166 16.812 21.7114 17.1167 21.7114C17.4213 21.7114 17.7184 21.6166 17.9667 21.44C18.213 21.2632 18.3984 21.0144 18.4975 20.7279C18.5966 20.4414 18.6044 20.1312 18.52 19.84L16.8867 14.08C16.878 14.0511 16.8785 14.0202 16.888 13.9916C16.8976 13.9629 16.9157 13.9379 16.94 13.92L21.6667 10.1867Z" fill="#4FCCA3"/>
</svg>
